# xmcd
#
# Track frame offsets:
#	150
#	22295
#	49877
#
# Disc length: 1027 seconds
#
# Revision: 3
# Processed by: cddbd v1.5.2PL0 Copyright (c) Steve Scherf et al.
# Submitted via: audiograbber 1.83.01
#
DISCID=25040103
DTITLE=Michael Jackson - Billie Jean - Maxi Single
DYEAR=1990
DGENRE=Pop
TTITLE0=Billie Jean
TTITLE1=Don't stop 'till you get enough
TTITLE2=Wanna be startin' something
EXTD=
EXTT0=
EXTT1=
EXTT2=
PLAYORDER=
